<?xml version="1.0" encoding="UTF-8"?>
<svg id="svg13" fill="none" version="1.1" viewBox="0 0 551 551" xmlns="http://www.w3.org/2000/svg">
 <g id="g2" transform="matrix(1.0722 0 0 1.0932 -28.483 -47.108)" opacity=".95">
  <path id="path1" d="m314.16 97.663-221.84 41.397c-7.6915 1.436-12.818 8.539-11.451 15.866l63.25 338.94c1.367 7.327 8.71 12.103 16.402 10.668l221.84-41.397c7.692-1.435 12.819-8.539 11.451-15.865l-63.249-338.94c-1.368-7.327-8.711-12.103-16.403-10.668z" fill="url(#paint0_linear_629_39)"/>
  <path id="path2" d="m314.16 97.663-221.84 41.397c-7.6915 1.436-12.818 8.539-11.451 15.866l63.25 338.94c1.367 7.327 8.71 12.103 16.402 10.668l221.84-41.397c7.692-1.435 12.819-8.539 11.451-15.865l-63.249-338.94c-1.368-7.327-8.711-12.103-16.403-10.668z" stroke="#fff"/>
 </g>
 <g id="g3">
  <path id="path3" d="m482.76 85.677-222.52-39.337c-7.715-1.3639-15.075 3.785-16.439 11.5l-63.092 356.91c-1.364 7.715 3.785 15.075 11.501 16.439l222.52 39.336c7.716 1.364 15.076-3.785 16.44-11.5l63.091-356.91c1.364-7.7158-3.785-15.076-11.5-16.44z" fill="url(#paint1_linear_629_39)"/>
 </g>
 <path id="path4" d="m348.33 308.18 5.287-33.12 31.797-32.606 26.359-14.476-60.041-54.556 17.946-31.93 37.209 19.086 66.626 58.883-28.464 161.02-96.719-72.301z" fill="url(#paint2_linear_629_39)"/>
 <path id="path5" d="m325.74 324.54 16.966 6.855 98.605 70.217-10.246 57.912-134.54-81.553 29.22-53.431z" fill="url(#paint3_linear_629_39)"/>
 <path id="path6" d="m342.31 180.56c-8.408-0.967-16.469-0.83-24.184 0.412s-16.396 3.675-26.042 7.298l-10.158-41.279c9.78-4.791 21.033-7.992 33.76-9.604 12.754-1.846 25.087-2.083 36.998-0.713 14.947 1.72 26.979 5.116 36.098 10.188 9.352 5.099 16.481 11.007 21.388 17.724 4.906 6.717 7.994 13.816 9.263 21.298 1.502 7.508 1.877 14.532 1.125 21.072-0.753 6.539-2.502 12.49-5.249 17.853-2.486 5.157-5.516 9.896-9.09 14.218-3.573 4.321-7.587 8.355-12.041 12.102s-8.764 7.274-12.931 10.581c-3.125 2.48-6.393 5.18-9.806 8.101-3.385 2.687-6.564 5.634-9.536 8.841-2.738 3.235-5.153 6.743-7.245 10.525-2.065 3.549-3.325 7.308-3.782 11.279-0.108 0.934-0.269 2.335-0.484 4.203-0.215 1.869-0.286 3.517-0.214 4.945l-46.242-5.32c-0.198-2.389-0.253-4.999-0.164-7.828 0.349-3.036 0.645-5.605 0.887-7.707 0.752-6.539 2.241-12.284 4.467-17.234 2.253-5.183 4.919-9.846 7.999-13.988 3.34-4.348 6.99-8.306 10.95-11.873s8.023-7.004 12.189-10.311c5.99-4.754 11.499-9.444 16.528-14.072 5.055-4.861 7.972-10.677 8.752-17.45 0.644-5.605-1.023-10.648-5.004-15.129-3.747-4.454-9.824-7.165-18.232-8.132zm12.306 179.96c-1.182 10.276-5.482 17.827-12.9 22.653-7.184 4.853-14.98 6.795-23.388 5.828-8.407-0.967-15.675-4.643-21.803-11.028-5.894-6.357-8.25-14.674-7.068-24.95s5.365-17.84 12.549-22.693c7.418-4.826 15.331-6.755 23.739-5.787 8.407 0.967 15.558 4.629 21.452 10.987 6.128 6.384 8.601 14.714 7.419 24.99z" fill="#fff" fill-opacity=".97594"/>
 <defs id="defs13">
  <linearGradient id="paint0_linear_629_39" x1="59.194" x2="494.17" y1="72.804" y2="343.15" gradientUnits="userSpaceOnUse">
   <stop id="stop6" stop-color="#FEC200" offset="0"/>
   <stop id="stop7" stop-color="#FE0200" offset="1"/>
  </linearGradient>
  <linearGradient id="paint1_linear_629_39" x1="184.82" x2="634.98" y1="67.538" y2="457.59" gradientUnits="userSpaceOnUse">
   <stop id="stop8" stop-color="#02FFFD" offset="0"/>
   <stop id="stop9" stop-color="#002DD4" offset="1"/>
  </linearGradient>
  <linearGradient id="paint2_linear_629_39" x1="356.79" x2="495.74" y1="221.27" y2="346.93" gradientUnits="userSpaceOnUse">
   <stop id="stop10" stop-opacity=".24336" offset="0"/>
   <stop id="stop11" stop-opacity=".014573" offset="1"/>
  </linearGradient>
  <linearGradient id="paint3_linear_629_39" x1="243.28" x2="448.59" y1="312.25" y2="476.63" gradientUnits="userSpaceOnUse">
   <stop id="stop12" stop-opacity=".33422" offset="0"/>
   <stop id="stop13" stop-opacity="0" offset="1"/>
  </linearGradient>
 </defs>
</svg>
