<svg fill="none" viewBox="0 0 552 551" xmlns="http://www.w3.org/2000/svg">
    <g filter="url(#filter0_di_629_47)" opacity=".95">
        <path d="m327.336 40.9961h-222.397c-7.7106 0-13.9615 6.251-13.9615 13.9619v356.706c0 7.711 6.2509 13.962 13.9615 13.962h222.397c7.711 0 13.962-6.251 13.962-13.962v-356.706c0-7.7109-6.251-13.9619-13.962-13.9619z" fill="url(#paint0_linear_629_47)"/>
        <path d="m327.336 40.9961h-222.397c-7.7106 0-13.9615 6.251-13.9615 13.9619v356.706c0 7.711 6.2509 13.962 13.9615 13.962h222.397c7.711 0 13.962-6.251 13.962-13.962v-356.706c0-7.7109-6.251-13.9619-13.962-13.9619z" stroke="#fff"/>
    </g>
    <g fill="#fff">
        <rect x="114.671" y="73.355" width="131.422" height="18.2765" rx="8.89368"/>
        <rect x="114.671" y="134.438" width="131.422" height="18.2765" rx="8.89368"/>
        <rect x="114.671" y="195.521" width="131.422" height="18.2765" rx="8.89368"/>
        <rect x="114.671" y="256.605" width="131.422" height="18.2765" rx="8.89368"/>
        <rect x="114.671" y="317.688" width="131.422" height="18.2765" rx="8.89368"/>
        <rect x="114.671" y="378.771" width="131.422" height="18.2765" rx="8.89368"/>
    </g>
    <g filter="url(#filter1_di_629_47)">
        <path d="m447.869 125.373h-222.4c-7.711 0-13.962 6.251-13.962 13.962v356.707c0 7.711 6.251 13.962 13.962 13.962h222.4c7.711 0 13.962-6.251 13.962-13.962v-356.707c0-7.711-6.251-13.962-13.962-13.962z" fill="url(#paint1_linear_629_47)"/>
    </g>
    <g fill="#fff">
        <rect x="312.491" y="153.951" width="131.422" height="18.2765" rx="8.89368"/>
        <rect x="312.491" y="215.034" width="131.422" height="18.2765" rx="8.89368"/>
        <rect x="312.491" y="276.118" width="131.422" height="18.2765" rx="8.89368"/>
        <rect x="312.491" y="337.201" width="131.422" height="18.2765" rx="8.89368"/>
        <rect x="312.491" y="398.284" width="131.422" height="18.2765" rx="8.89368"/>
        <rect x="312.491" y="459.367" width="131.422" height="18.2765" rx="8.89368"/>
    </g>
    <defs>
        <filter id="filter0_di_629_47" x="90.9775" y="40.9961" width="266.32" height="400.63" color-interpolation-filters="sRGB" filterUnits="userSpaceOnUse">
            <feFlood flood-opacity="0" result="BackgroundImageFix"/>
            <feColorMatrix in="SourceAlpha" result="hardAlpha" values="0 0 0 0 0 0 0 0 0 0 0 0 0 0 0 0 0 0 127 0"/>
            <feOffset dx="10" dy="10"/>
            <feGaussianBlur stdDeviation="3"/>
            <feComposite in2="hardAlpha" operator="out"/>
            <feColorMatrix values="0 0 0 0 0 0 0 0 0 0 0 0 0 0 0 0 0 0 0.25 0"/>
            <feBlend in2="BackgroundImageFix" result="effect1_dropShadow_629_47"/>
            <feBlend in="SourceGraphic" in2="effect1_dropShadow_629_47" result="shape"/>
            <feColorMatrix in="SourceAlpha" result="hardAlpha" values="0 0 0 0 0 0 0 0 0 0 0 0 0 0 0 0 0 0 127 0"/>
            <feOffset dx="2" dy="9"/>
            <feComposite in2="hardAlpha" k2="-1" k3="1" operator="arithmetic"/>
            <feColorMatrix values="0 0 0 0 0.183333 0 0 0 0 0.116417 0 0 0 0 0.0718056 0 0 0 0.17 0"/>
            <feBlend in2="shape" result="effect2_innerShadow_629_47"/>
        </filter>
        <filter id="filter1_di_629_47" x="209.507" y="125.373" width="280.324" height="414.631" color-interpolation-filters="sRGB" filterUnits="userSpaceOnUse">
            <feFlood flood-opacity="0" result="BackgroundImageFix"/>
            <feColorMatrix in="SourceAlpha" result="hardAlpha" values="0 0 0 0 0 0 0 0 0 0 0 0 0 0 0 0 0 0 127 0"/>
            <feOffset dx="13" dy="15"/>
            <feGaussianBlur stdDeviation="7.5"/>
            <feComposite in2="hardAlpha" operator="out"/>
            <feColorMatrix values="0 0 0 0 0 0 0 0 0 0 0 0 0 0 0 0 0 0 0.25 0"/>
            <feBlend in2="BackgroundImageFix" result="effect1_dropShadow_629_47"/>
            <feBlend in="SourceGraphic" in2="effect1_dropShadow_629_47" result="shape"/>
            <feColorMatrix in="SourceAlpha" result="hardAlpha" values="0 0 0 0 0 0 0 0 0 0 0 0 0 0 0 0 0 0 127 0"/>
            <feOffset dy="-10"/>
            <feComposite in2="hardAlpha" k2="-1" k3="1" operator="arithmetic"/>
            <feColorMatrix values="0 0 0 0 0 0 0 0 0 0 0 0 0 0 0 0 0 0 0.56 0"/>
            <feBlend in2="shape" result="effect2_innerShadow_629_47"/>
        </filter>
        <linearGradient id="paint0_linear_629_47" x1="84.8214" x2="473.742" y1="-32.6749" y2="306.003" gradientUnits="userSpaceOnUse">
            <stop stop-color="#FEC200" offset="0"/>
            <stop stop-color="#FE0200" offset="1"/>
        </linearGradient>
        <linearGradient id="paint1_linear_629_47" x1="156.017" x2="659.112" y1="158.836" y2="459.737" gradientUnits="userSpaceOnUse">
            <stop stop-color="#02FFFD" offset="0"/>
            <stop stop-color="#002DD4" offset="1"/>
        </linearGradient>
    </defs>
</svg>
